<svg xmlns="http://www.w3.org/2000/svg" xmlns:xlink="http://www.w3.org/1999/xlink" version="1.1" width="1000" height="1000" viewBox="0 0 1000 1000" xml:space="preserve">
<desc>Created with Fabric.js 3.5.0</desc>
<defs>
</defs>
<rect x="0" y="0" width="100%" height="100%" fill="rgba(255,255,255,0)"/>
<g transform="matrix(1 0 0 1 489.4696 144.2425)" style="" id="98422">
		
<path xml:space="preserve" font-family="Atomic Age" font-size="206" font-style="normal" font-weight="normal" style="stroke: none; stroke-width: 0; stroke-dasharray: none; stroke-linecap: butt; stroke-dashoffset: 0; stroke-linejoin: miter; stroke-miterlimit: 4; is-custom-font: none; font-file-url: none; fill: rgb(32,20,20); fill-rule: nonzero; opacity: 0.84; white-space: pre;" d="M-447.45 39.37L-447.45-62.23Q-447.45-67.56-445.94-72.23Q-444.43-76.91-441.86-80.38Q-439.30-83.85-435.88-85.81Q-432.46-87.78-428.54-87.78L-428.54-87.78L-370.20-87.78Q-366.27-87.78-362.75-85.81Q-359.23-83.85-356.67-80.38Q-354.10-76.91-352.59-72.23Q-351.09-67.56-351.09-62.23L-351.09-62.23L-351.09 39.37Q-351.09 44.60-352.59 49.22Q-354.10 53.85-356.72 57.27Q-359.33 60.69-362.80 62.70Q-366.27 64.71-370.20 64.71L-370.20 64.71L-428.54 64.71Q-432.46 64.71-435.88 62.70Q-439.30 60.69-441.86 57.27Q-444.43 53.85-445.94 49.22Q-447.45 44.60-447.45 39.37L-447.45 39.37ZM-423.41 47.51L-375.02 47.51L-375.02-70.78L-423.41-70.78L-423.41 47.51Z"/><path xml:space="preserve" font-family="Atomic Age" font-size="206" font-style="normal" font-weight="normal" style="stroke: none; stroke-width: 0; stroke-dasharray: none; stroke-linecap: butt; stroke-dashoffset: 0; stroke-linejoin: miter; stroke-miterlimit: 4; is-custom-font: none; font-file-url: none; fill: rgb(32,20,20); fill-rule: nonzero; opacity: 0.84; white-space: pre;" d="M-247.69 64.71L-284.00-70.58L-302.71-70.58Q-302.31-74.10-300.75-77.21Q-299.19-80.33-296.82-82.70Q-294.46-85.06-291.44-86.42Q-288.42-87.78-285.10-87.78L-285.10-87.78L-263.68-87.78L-231.49 49.42L-200.21-87.78L-175.87-87.78L-215.30 64.71L-247.69 64.71Z"/><path xml:space="preserve" font-family="Atomic Age" font-size="206" font-style="normal" font-weight="normal" style="stroke: none; stroke-width: 0; stroke-dasharray: none; stroke-linecap: butt; stroke-dashoffset: 0; stroke-linejoin: miter; stroke-miterlimit: 4; is-custom-font: none; font-file-url: none; fill: rgb(32,20,20); fill-rule: nonzero; opacity: 0.84; white-space: pre;" d="M-113.41 39.37L-113.41 7.98L-136.04 7.98Q-135.74 4.66-134.33 1.70Q-132.92-1.27-130.66-3.43Q-128.40-5.60-125.53-6.90Q-122.66-8.21-119.44-8.21L-119.44-8.21L-113.41-8.21L-113.41-62.23Q-113.41-67.56-111.95-72.23Q-110.49-76.91-107.93-80.38Q-105.36-83.85-101.89-85.81Q-98.42-87.78-94.50-87.78L-94.50-87.78L-31.33-87.78L-31.33-70.78L-89.27-70.78L-89.27-8.21L-49.44-8.21L-49.44 7.98L-89.27 7.98L-89.27 47.51L-22.38 47.51Q-22.78 51.03-24.34 54.20Q-25.90 57.37-28.26 59.68Q-30.63 62.00-33.64 63.35Q-36.66 64.71-39.98 64.71L-39.98 64.71L-94.30 64.71Q-98.32 64.71-101.79 62.70Q-105.26 60.69-107.83 57.27Q-110.39 53.85-111.90 49.22Q-113.41 44.60-113.41 39.37L-113.41 39.37Z"/><path xml:space="preserve" font-family="Atomic Age" font-size="206" font-style="normal" font-weight="normal" style="stroke: none; stroke-width: 0; stroke-dasharray: none; stroke-linecap: butt; stroke-dashoffset: 0; stroke-linejoin: miter; stroke-miterlimit: 4; is-custom-font: none; font-file-url: none; fill: rgb(32,20,20); fill-rule: nonzero; opacity: 0.84; white-space: pre;" d="M33.34 64.71L33.34-87.78L57.18-87.78L57.18-50.86L94.70-80.23Q96.51-81.74 98.32-83.10Q100.13-84.46 102.09-85.51Q104.05-86.57 106.22-87.17Q108.38-87.78 110.89-87.78L110.89-87.78Q114.82-87.78 118.24-86.02Q121.66-84.25 124.22-81.09Q126.79-77.92 128.25-73.64Q129.70-69.37 129.70-64.44L129.70-64.44L129.70 47.41L152.34 47.41Q151.93 51.03 150.37 54.15Q148.81 57.27 146.45 59.63Q144.09 62.00 141.07 63.35Q138.05 64.71 134.73 64.71L134.73 64.71L123.87 64.71Q119.95 64.71 116.53 62.70Q113.11 60.69 110.54 57.27Q107.98 53.85 106.52 49.22Q105.06 44.60 105.06 39.37L105.06 39.37L105.06-67.56L57.18-30.24L57.18 64.71L33.34 64.71Z"/><path xml:space="preserve" font-family="Atomic Age" font-size="206" font-style="normal" font-weight="normal" style="stroke: none; stroke-width: 0; stroke-dasharray: none; stroke-linecap: butt; stroke-dashoffset: 0; stroke-linejoin: miter; stroke-miterlimit: 4; is-custom-font: none; font-file-url: none; fill: rgb(32,20,20); fill-rule: nonzero; opacity: 0.84; white-space: pre;" d="M206.35 39.37L206.35-62.23Q206.35-67.56 207.85-72.23Q209.36-76.91 211.98-80.38Q214.59-83.85 218.01-85.81Q221.43-87.78 225.36-87.78L225.36-87.78L281.28-87.78Q285.21-87.78 288.68-85.81Q292.15-83.85 294.76-80.38Q297.38-76.91 298.89-72.23Q300.39-67.56 300.39-62.23L300.39-62.23L300.39-22.90L276.45-22.90L276.45-70.78L230.18-70.78L230.18 47.51L307.64 47.51Q307.23 51.03 305.67 54.20Q304.12 57.37 301.75 59.68Q299.39 62.00 296.37 63.35Q293.35 64.71 290.03 64.71L290.03 64.71L225.36 64.71Q221.43 64.71 218.01 62.70Q214.59 60.69 211.98 57.27Q209.36 53.85 207.85 49.22Q206.35 44.60 206.35 39.37L206.35 39.37Z"/><path xml:space="preserve" font-family="Atomic Age" font-size="206" font-style="normal" font-weight="normal" style="stroke: none; stroke-width: 0; stroke-dasharray: none; stroke-linecap: butt; stroke-dashoffset: 0; stroke-linejoin: miter; stroke-miterlimit: 4; is-custom-font: none; font-file-url: none; fill: rgb(32,20,20); fill-rule: nonzero; opacity: 0.84; white-space: pre;" d="M372.81 39.37L372.81 7.98L350.18 7.98Q350.48 4.66 351.89 1.70Q353.30-1.27 355.56-3.43Q357.82-5.60 360.69-6.90Q363.56-8.21 366.78-8.21L366.78-8.21L372.81-8.21L372.81-62.23Q372.81-67.56 374.27-72.23Q375.73-76.91 378.29-80.38Q380.86-83.85 384.33-85.81Q387.80-87.78 391.72-87.78L391.72-87.78L454.89-87.78L454.89-70.78L396.95-70.78L396.95-8.21L436.78-8.21L436.78 7.98L396.95 7.98L396.95 47.51L463.84 47.51Q463.44 51.03 461.88 54.20Q460.32 57.37 457.96 59.68Q455.59 62.00 452.58 63.35Q449.56 64.71 446.24 64.71L446.24 64.71L391.92 64.71Q387.90 64.71 384.43 62.70Q380.96 60.69 378.39 57.27Q375.83 53.85 374.32 49.22Q372.81 44.60 372.81 39.37L372.81 39.37Z"/></g>
<g transform="matrix(1 0 0 1 500 286.9247)" style="" id="222616">
		
<path xml:space="preserve" font-family="Atomic Age" font-size="163" font-style="normal" font-weight="normal" style="stroke: none; stroke-width: 0; stroke-dasharray: none; stroke-linecap: butt; stroke-dashoffset: 0; stroke-linejoin: miter; stroke-miterlimit: 4; is-custom-font: none; font-file-url: none; fill: rgb(42,42,42); fill-rule: nonzero; opacity: 0.84; white-space: pre;" d="M-426.56 51.20L-426.56 51.20Q-426.24 48.42-425.01 45.95Q-423.78 43.48-421.91 41.61Q-420.04 39.74-417.65 38.67Q-415.26 37.59-412.63 37.59L-412.63 37.59L-383.42 37.59L-383.42 18.25L-425.13-2.52Q-429.90-4.91-432.77-9.76Q-435.64-14.62-435.64-21.86L-435.64-21.86L-435.64-49.24Q-435.64-53.46-434.48-57.16Q-433.33-60.86-431.30-63.60Q-429.27-66.35-426.56-67.90Q-423.86-69.45-420.75-69.45L-420.75-69.45L-376.74-69.45Q-373.63-69.45-370.93-67.90Q-368.22-66.35-366.19-63.60Q-364.16-60.86-362.97-57.16Q-361.78-53.46-361.78-49.24L-361.78-49.24L-361.78-25.68L-380.80-25.68L-380.80-55.84L-416.61-55.84L-416.61-18.12L-373.48 3.93Q-371.41 4.96-369.73 6.79Q-368.06 8.62-366.87 11.05Q-365.68 13.48-365.04 16.42Q-364.40 19.37-364.40 22.55L-364.40 22.55L-364.40 31.15Q-364.40 35.29-365.60 38.95Q-366.79 42.61-368.82 45.32Q-370.85 48.02-373.55 49.61Q-376.26 51.20-379.37 51.20L-379.37 51.20L-426.56 51.20Z"/><path xml:space="preserve" font-family="Atomic Age" font-size="163" font-style="normal" font-weight="normal" style="stroke: none; stroke-width: 0; stroke-dasharray: none; stroke-linecap: butt; stroke-dashoffset: 0; stroke-linejoin: miter; stroke-miterlimit: 4; is-custom-font: none; font-file-url: none; fill: rgb(42,42,42); fill-rule: nonzero; opacity: 0.84; white-space: pre;" d="M-268.51 51.20L-268.51 51.20Q-268.19 48.42-266.96 45.95Q-265.73 43.48-263.86 41.61Q-261.99 39.74-259.60 38.67Q-257.21 37.59-254.58 37.59L-254.58 37.59L-231.18 37.59L-231.18-56.00L-266.52-56.00L-266.52-30.14L-285.54-30.14L-285.54-49.24Q-285.54-53.46-284.35-57.16Q-283.16-60.86-281.09-63.60Q-279.02-66.35-276.31-67.90Q-273.61-69.45-270.50-69.45L-270.50-69.45L-195.77-69.45L-195.77-56.00L-212.24-56.00L-212.24 31.07Q-212.24 35.21-213.44 38.87Q-214.63 42.53-216.70 45.28Q-218.77 48.02-221.47 49.61Q-224.18 51.20-227.28 51.20L-227.28 51.20L-268.51 51.20Z"/><path xml:space="preserve" font-family="Atomic Age" font-size="163" font-style="normal" font-weight="normal" style="stroke: none; stroke-width: 0; stroke-dasharray: none; stroke-linecap: butt; stroke-dashoffset: 0; stroke-linejoin: miter; stroke-miterlimit: 4; is-custom-font: none; font-file-url: none; fill: rgb(42,42,42); fill-rule: nonzero; opacity: 0.84; white-space: pre;" d="M-120.41 31.15L-120.41-49.24Q-120.41-53.46-119.22-57.16Q-118.02-60.86-115.99-63.60Q-113.96-66.35-111.26-67.90Q-108.55-69.45-105.45-69.45L-105.45-69.45L-59.29-69.45Q-56.18-69.45-53.40-67.90Q-50.61-66.35-48.58-63.60Q-46.55-60.86-45.36-57.16Q-44.16-53.46-44.16-49.24L-44.16-49.24L-44.16 31.15Q-44.16 35.29-45.36 38.95Q-46.55 42.61-48.62 45.32Q-50.69 48.02-53.44 49.61Q-56.18 51.20-59.29 51.20L-59.29 51.20L-105.45 51.20Q-108.55 51.20-111.26 49.61Q-113.96 48.02-115.99 45.32Q-118.02 42.61-119.22 38.95Q-120.41 35.29-120.41 31.15L-120.41 31.15ZM-101.39 37.59L-63.11 37.59L-63.11-56.00L-101.39-56.00L-101.39 37.59Z"/><path xml:space="preserve" font-family="Atomic Age" font-size="163" font-style="normal" font-weight="normal" style="stroke: none; stroke-width: 0; stroke-dasharray: none; stroke-linecap: butt; stroke-dashoffset: 0; stroke-linejoin: miter; stroke-miterlimit: 4; is-custom-font: none; font-file-url: none; fill: rgb(42,42,42); fill-rule: nonzero; opacity: 0.84; white-space: pre;" d="M47.67 51.20L47.67 6.32L29.92 6.32Q30.16 3.53 31.39 1.06Q32.62-1.40 34.49-3.27Q36.36-5.14 38.75-6.22Q41.14-7.29 43.85-7.29L43.85-7.29L47.67-7.29L47.67-69.45L101.63-69.45Q104.81-69.45 107.76-67.90Q110.70-66.35 112.97-63.60Q115.24-60.86 116.59-57.16Q117.94-53.46 117.94-49.24L117.94-49.24L117.94-19.55Q117.94-13.74 115.32-8.89Q112.69-4.03 107.68-1.09L107.68-1.09Q111.18 0.19 113.73 2.50Q116.27 4.80 117.94 7.59Q119.62 10.38 120.41 13.40Q121.21 16.42 121.21 19.13L121.21 19.13L121.13 37.52L142.06 37.52Q141.74 40.38 140.51 42.85Q139.27 45.32 137.40 47.19Q135.53 49.06 133.15 50.13Q130.76 51.20 128.13 51.20L128.13 51.20L117.15 51.20Q114.04 51.20 111.30 49.61Q108.55 48.02 106.48 45.32Q104.41 42.61 103.22 38.95Q102.03 35.29 102.03 31.15L102.03 31.15L102.03 6.32L66.53 6.32L66.45 51.20L47.67 51.20ZM66.53-7.29L99.08-7.29L99.08-55.84L66.53-55.84L66.53-7.29Z"/><path xml:space="preserve" font-family="Atomic Age" font-size="163" font-style="normal" font-weight="normal" style="stroke: none; stroke-width: 0; stroke-dasharray: none; stroke-linecap: butt; stroke-dashoffset: 0; stroke-linejoin: miter; stroke-miterlimit: 4; is-custom-font: none; font-file-url: none; fill: rgb(42,42,42); fill-rule: nonzero; opacity: 0.84; white-space: pre;" d="M214.63 31.15L214.63 6.32L196.72 6.32Q196.96 3.69 198.08 1.34Q199.19-1.01 200.98-2.72Q202.77-4.43 205.04-5.46Q207.31-6.50 209.85-6.50L209.85-6.50L214.63-6.50L214.63-49.24Q214.63-53.46 215.78-57.16Q216.94-60.86 218.97-63.60Q221.00-66.35 223.74-67.90Q226.49-69.45 229.59-69.45L229.59-69.45L279.58-69.45L279.58-56.00L233.73-56.00L233.73-6.50L265.25-6.50L265.25 6.32L233.73 6.32L233.73 37.59L286.66 37.59Q286.34 40.38 285.11 42.89Q283.87 45.39 282.00 47.23Q280.13 49.06 277.74 50.13Q275.36 51.20 272.73 51.20L272.73 51.20L229.75 51.20Q226.57 51.20 223.82 49.61Q221.08 48.02 219.05 45.32Q217.02 42.61 215.82 38.95Q214.63 35.29 214.63 31.15L214.63 31.15Z"/><path xml:space="preserve" font-family="Atomic Age" font-size="163" font-style="normal" font-weight="normal" style="stroke: none; stroke-width: 0; stroke-dasharray: none; stroke-linecap: butt; stroke-dashoffset: 0; stroke-linejoin: miter; stroke-miterlimit: 4; is-custom-font: none; font-file-url: none; fill: rgb(42,42,42); fill-rule: nonzero; opacity: 0.84; white-space: pre;" d="M368.54 51.20L368.54 51.20Q368.86 48.42 370.09 45.95Q371.33 43.48 373.20 41.61Q375.07 39.74 377.45 38.67Q379.84 37.59 382.47 37.59L382.47 37.59L411.68 37.59L411.68 18.25L369.97-2.52Q365.20-4.91 362.33-9.76Q359.47-14.62 359.47-21.86L359.47-21.86L359.47-49.24Q359.47-53.46 360.62-57.16Q361.78-60.86 363.81-63.60Q365.83-66.35 368.54-67.90Q371.25-69.45 374.35-69.45L374.35-69.45L418.36-69.45Q421.47-69.45 424.17-67.90Q426.88-66.35 428.91-63.60Q430.94-60.86 432.13-57.16Q433.33-53.46 433.33-49.24L433.33-49.24L433.33-25.68L414.30-25.68L414.30-55.84L378.49-55.84L378.49-18.12L421.63 3.93Q423.70 4.96 425.37 6.79Q427.04 8.62 428.23 11.05Q429.43 13.48 430.06 16.42Q430.70 19.37 430.70 22.55L430.70 22.55L430.70 31.15Q430.70 35.29 429.51 38.95Q428.31 42.61 426.28 45.32Q424.25 48.02 421.55 49.61Q418.84 51.20 415.74 51.20L415.74 51.20L368.54 51.20Z"/></g>
<g transform="matrix(1.9429 0 0 2.4905 497.3824 501.7471)" id="988951">
<g style="" vector-effect="non-scaling-stroke">
		<g transform="matrix(1 0 0 1 74.199 64.835)" id="Layer_1">
<path style="stroke: none; stroke-width: 1; stroke-dasharray: none; stroke-linecap: butt; stroke-dashoffset: 0; stroke-linejoin: miter; stroke-miterlimit: 4; is-custom-font: none; font-file-url: none; fill: rgb(0,0,0); fill-rule: nonzero; opacity: 1;" transform=" translate(-330.199, -320.835)" d="M 456.414 247.911 h -252.43 c -5.633 0 -10.199 4.566 -10.199 10.199 v 125.45 c 0 5.633 4.566 10.199 10.199 10.199 h 252.43 c 5.633 0 10.199 -4.566 10.199 -10.199 V 258.11 C 466.614 252.477 462.047 247.911 456.414 247.911 z M 446.215 373.361 H 214.183 V 268.309 h 232.032 V 373.361 z" stroke-linecap="round"/>
</g>
		<g transform="matrix(1 0 0 1 117.2905 33.728)" id="Layer_1">
<path style="stroke: none; stroke-width: 1; stroke-dasharray: none; stroke-linecap: butt; stroke-dashoffset: 0; stroke-linejoin: miter; stroke-miterlimit: 4; is-custom-font: none; font-file-url: none; fill: rgb(0,0,0); fill-rule: nonzero; opacity: 1;" transform=" translate(-373.2905, -289.728)" d="M 381.45 279.529 h -16.319 c -5.633 0 -10.199 4.566 -10.199 10.199 c 0 5.633 4.566 10.199 10.199 10.199 h 16.319 c 5.633 0 10.199 -4.566 10.199 -10.199 C 391.649 284.095 387.083 279.529 381.45 279.529 z" stroke-linecap="round"/>
</g>
		<g transform="matrix(1 0 0 1 27.5375 33.728)" id="Layer_1">
<path style="stroke: none; stroke-width: 1; stroke-dasharray: none; stroke-linecap: butt; stroke-dashoffset: 0; stroke-linejoin: miter; stroke-miterlimit: 4; is-custom-font: none; font-file-url: none; fill: rgb(0,0,0); fill-rule: nonzero; opacity: 1;" transform=" translate(-283.5375, -289.728)" d="M 328.414 279.529 h -89.753 c -5.633 0 -10.199 4.566 -10.199 10.199 c 0 5.633 4.566 10.199 10.199 10.199 h 89.753 c 5.633 0 10.199 -4.566 10.199 -10.199 C 338.614 284.095 334.047 279.529 328.414 279.529 z" stroke-linecap="round"/>
</g>
		<g transform="matrix(1 0 0 1 -170.327 93.3925)" id="Layer_1">
<path style="stroke: none; stroke-width: 1; stroke-dasharray: none; stroke-linecap: butt; stroke-dashoffset: 0; stroke-linejoin: miter; stroke-miterlimit: 4; is-custom-font: none; font-file-url: none; fill: rgb(0,0,0); fill-rule: nonzero; opacity: 1;" transform=" translate(-85.673, -349.3925)" d="M 85.673 333.584 c -5.633 0 -10.199 4.566 -10.199 10.199 v 11.219 c 0 5.633 4.566 10.199 10.199 10.199 c 5.633 0 10.199 -4.566 10.199 -10.199 v -11.219 C 95.872 338.151 91.306 333.584 85.673 333.584 z" stroke-linecap="round"/>
</g>
		<g transform="matrix(1 0 0 1 0 0)" id="Layer_1">
<path style="stroke: none; stroke-width: 1; stroke-dasharray: none; stroke-linecap: butt; stroke-dashoffset: 0; stroke-linejoin: miter; stroke-miterlimit: 4; is-custom-font: none; font-file-url: none; fill: rgb(0,0,0); fill-rule: nonzero; opacity: 1;" transform=" translate(-256, -256)" d="M 501.801 55.005 H 10.199 C 4.566 55.005 0 59.572 0 65.205 v 381.591 c 0 5.633 4.566 10.199 10.199 10.199 h 491.602 c 5.633 0 10.199 -4.566 10.199 -10.199 V 65.205 C 512 59.572 507.434 55.005 501.801 55.005 z M 430.109 75.404 h 61.493 v 89.894 v 0.871 c 0 16.954 -13.792 30.747 -30.747 30.747 s -30.747 -13.792 -30.747 -30.747 V 75.404 z M 348.175 75.404 h 61.493 v 90.765 c 0 16.954 -13.792 30.747 -30.747 30.747 c -16.953 0 -30.747 -13.792 -30.747 -30.747 V 75.404 z M 266.156 75.404 h 61.493 v 90.765 c 0 16.954 -13.792 30.747 -30.747 30.747 s -30.747 -13.792 -30.747 -30.747 V 75.404 z M 184.223 75.404 h 61.493 v 90.765 c 0 16.954 -13.792 30.747 -30.747 30.747 c -16.954 0 -30.747 -13.792 -30.747 -30.747 V 75.404 z M 102.332 75.404 h 61.493 v 90.765 c 0 16.954 -13.792 30.747 -30.747 30.747 c -16.953 0 -30.747 -13.792 -30.747 -30.747 V 75.404 z M 20.398 165.297 V 75.404 h 61.493 v 90.765 c 0 16.954 -13.792 30.747 -30.747 30.747 c -16.954 0 -30.746 -13.793 -30.746 -30.747 V 165.297 z M 147.888 436.596 H 66.295 V 267.289 h 81.594 V 436.596 z M 491.603 436.596 H 168.287 V 257.09 c 0 -5.633 -4.566 -10.199 -10.199 -10.199 H 56.096 c -5.633 0 -10.199 4.566 -10.199 10.199 v 179.506 H 20.398 V 207.009 c 8.564 6.464 19.214 10.304 30.746 10.304 c 16.742 0 31.631 -8.086 40.967 -20.559 c 9.335 12.473 24.225 20.559 40.967 20.559 c 16.73 0 31.608 -8.075 40.946 -20.531 c 9.337 12.456 24.216 20.531 40.946 20.531 c 16.742 0 31.631 -8.086 40.967 -20.559 c 9.335 12.473 24.225 20.559 40.967 20.559 c 16.769 0 31.677 -8.112 41.009 -20.618 c 9.333 12.505 24.241 20.618 41.009 20.618 c 16.742 0 31.631 -8.086 40.966 -20.559 c 9.335 12.472 24.225 20.559 40.967 20.559 c 11.532 0 22.182 -3.84 30.747 -10.304 V 436.596 z" stroke-linecap="round"/>
</g>
</g>
</g>
</svg>