<svg xmlns="http://www.w3.org/2000/svg" xmlns:xlink="http://www.w3.org/1999/xlink" version="1.1" width="2480" height="520" viewBox="0 0 2480 520" xml:space="preserve">
<desc>Created with Fabric.js 3.5.0</desc>
<defs>
</defs>
<rect x="0" y="0" width="100%" height="100%" fill="rgba(255,255,255,0)"/>
<g transform="matrix(1 0 0 1 966.1105 260)" style="" id="906056">
		
<path xml:space="preserve" font-family="Lato" font-size="250" font-style="normal" font-weight="bold" style="stroke: none; stroke-width: 1; stroke-dasharray: none; stroke-linecap: butt; stroke-dashoffset: 0; stroke-linejoin: miter; stroke-miterlimit: 4; is-custom-font: none; font-file-url: none; fill: rgb(0,0,0); fill-rule: nonzero; opacity: 1; white-space: pre;" d="M-726.13-11.84L-726.13-11.84Q-726.13 8.03-732.75 24.97Q-739.38 41.91-751.38 54.28Q-763.38 66.66-780.25 73.60Q-797.13 80.53-817.63 80.53L-817.63 80.53Q-838.13 80.53-855.06 73.60Q-872 66.66-884.06 54.28Q-896.13 41.91-902.75 24.97Q-909.38 8.03-909.38-11.84L-909.38-11.84Q-909.38-31.72-902.75-48.65Q-896.13-65.59-884.06-77.97Q-872-90.34-855.06-97.28Q-838.13-104.22-817.63-104.22L-817.63-104.22Q-797.13-104.22-780.25-97.22Q-763.38-90.22-751.38-77.90Q-739.38-65.59-732.75-48.65Q-726.13-31.72-726.13-11.84ZM-760.63-11.84L-760.63-11.84Q-760.63-26.72-764.56-38.53Q-768.50-50.34-775.88-58.59Q-783.25-66.84-793.81-71.22Q-804.38-75.59-817.63-75.59L-817.63-75.59Q-830.88-75.59-841.50-71.22Q-852.13-66.84-859.56-58.59Q-867-50.34-871-38.53Q-875-26.72-875-11.84L-875-11.84Q-875 3.03-871 14.85Q-867 26.66-859.56 34.85Q-852.13 43.03-841.50 47.41Q-830.88 51.78-817.63 51.78L-817.63 51.78Q-804.38 51.78-793.81 47.41Q-783.25 43.03-775.88 34.85Q-768.50 26.66-764.56 14.85Q-760.63 3.03-760.63-11.84ZM-651.38 78.53L-724.38-102.22L-697.25-102.22Q-692.88-102.22-690.13-100.09Q-687.38-97.97-686-94.59L-686-94.59L-643.50 15.66Q-641.38 21.03-639.44 27.47Q-637.50 33.91-635.75 41.03L-635.75 41.03Q-632.88 26.66-628.63 15.66L-628.63 15.66L-586.25-94.59Q-585.13-97.47-582.25-99.84Q-579.38-102.22-575.13-102.22L-575.13-102.22L-548-102.22L-621 78.53L-651.38 78.53ZM-529.13-102.22L-415.13-102.22L-415.13-75.47L-495.25-75.47L-495.25-25.34L-432.13-25.34L-432.13 0.53L-495.25 0.53L-495.25 51.66L-415.13 51.66L-415.13 78.53L-529.13 78.53L-529.13-102.22ZM-368.38-102.22L-368.38-102.22Q-366.13-102.22-364.63-102.03Q-363.13-101.84-361.94-101.28Q-360.75-100.72-359.63-99.65Q-358.50-98.59-357.13-96.84L-357.13-96.84L-262.25 24.03Q-262.75 19.66-262.94 15.47Q-263.13 11.28-263.13 7.66L-263.13 7.66L-263.13-102.22L-233.50-102.22L-233.50 78.53L-250.88 78.53Q-254.88 78.53-257.50 77.28Q-260.13 76.03-262.63 72.78L-262.63 72.78L-357.13-47.59Q-356.75-43.59-356.56-39.65Q-356.38-35.72-356.38-32.47L-356.38-32.47L-356.38 78.53L-386 78.53L-386-102.22L-368.38-102.22ZM-72.75 35.91L-72.75 35.91Q-70 35.91-68 38.03L-68 38.03L-54.75 52.41Q-65.75 66.03-81.81 73.28Q-97.88 80.53-120.38 80.53L-120.38 80.53Q-140.50 80.53-156.56 73.66Q-172.63 66.78-184 54.53Q-195.38 42.28-201.44 25.28Q-207.50 8.28-207.50-11.84L-207.50-11.84Q-207.50-32.22-200.75-49.15Q-194-66.09-181.75-78.34Q-169.50-90.59-152.44-97.40Q-135.38-104.22-114.75-104.22L-114.75-104.22Q-94.63-104.22-79.56-97.78Q-64.50-91.34-53.75-80.72L-53.75-80.72L-65-65.09Q-66-63.59-67.56-62.47Q-69.13-61.34-71.88-61.34L-71.88-61.34Q-74.75-61.34-77.75-63.59Q-80.75-65.84-85.38-68.47Q-90-71.09-97.06-73.34Q-104.13-75.59-115-75.59L-115-75.59Q-127.75-75.59-138.44-71.15Q-149.13-66.72-156.81-58.47Q-164.50-50.22-168.81-38.40Q-173.13-26.59-173.13-11.84L-173.13-11.84Q-173.13 3.41-168.81 15.28Q-164.50 27.16-157.13 35.28Q-149.75 43.41-139.75 47.72Q-129.75 52.03-118.25 52.03L-118.25 52.03Q-111.38 52.03-105.81 51.28Q-100.25 50.53-95.56 48.91Q-90.88 47.28-86.69 44.72Q-82.50 42.16-78.38 38.41L-78.38 38.41Q-77.13 37.28-75.75 36.60Q-74.38 35.91-72.75 35.91ZM-29.38-102.22L84.63-102.22L84.63-75.47L4.50-75.47L4.50-25.34L67.63-25.34L67.63 0.53L4.50 0.53L4.50 51.66L84.63 51.66L84.63 78.53L-29.38 78.53L-29.38-102.22ZM267.13-85.22L258.88-69.34Q257.50-66.59 255.69-65.47Q253.88-64.34 251.38-64.34L251.38-64.34Q248.88-64.34 245.75-66.28Q242.63-68.22 238.38-70.59Q234.13-72.97 228.44-74.90Q222.75-76.84 215-76.84L215-76.84Q208-76.84 202.81-75.15Q197.63-73.47 194.06-70.47Q190.50-67.47 188.75-63.28Q187-59.09 187-54.09L187-54.09Q187-47.72 190.56-43.47Q194.13-39.22 200-36.22Q205.88-33.22 213.38-30.84Q220.88-28.47 228.69-25.78Q236.50-23.09 244-19.53Q251.50-15.97 257.38-10.53Q263.25-5.09 266.81 2.78Q270.38 10.66 270.38 21.91L270.38 21.91Q270.38 34.16 266.19 44.85Q262 55.53 253.94 63.47Q245.88 71.41 234.25 75.97Q222.63 80.53 207.63 80.53L207.63 80.53Q199 80.53 190.63 78.85Q182.25 77.16 174.56 74.03Q166.88 70.91 160.19 66.53Q153.50 62.16 148.25 56.78L148.25 56.78L158 40.66Q159.38 38.91 161.31 37.72Q163.25 36.53 165.63 36.53L165.63 36.53Q168.75 36.53 172.38 39.10Q176 41.66 180.94 44.78Q185.88 47.91 192.56 50.47Q199.25 53.03 208.63 53.03L208.63 53.03Q223 53.03 230.88 46.22Q238.75 39.41 238.75 26.66L238.75 26.66Q238.75 19.53 235.19 15.03Q231.63 10.53 225.75 7.47Q219.88 4.41 212.38 2.28Q204.88 0.16 197.13-2.34Q189.38-4.84 181.88-8.34Q174.38-11.84 168.50-17.47Q162.63-23.09 159.06-31.53Q155.50-39.97 155.50-52.34L155.50-52.34Q155.50-62.22 159.44-71.59Q163.38-80.97 170.94-88.22Q178.50-95.47 189.50-99.84Q200.50-104.22 214.63-104.22L214.63-104.22Q230.63-104.22 244.13-99.22Q257.63-94.22 267.13-85.22L267.13-85.22ZM280.88-102.22L423.50-102.22L423.50-74.59L369.13-74.59L369.13 78.53L335.50 78.53L335.50-74.59L280.88-74.59L280.88-102.22ZM608.50-11.84L608.50-11.84Q608.50 8.03 601.88 24.97Q595.25 41.91 583.25 54.28Q571.25 66.66 554.38 73.60Q537.50 80.53 517 80.53L517 80.53Q496.50 80.53 479.56 73.60Q462.63 66.66 450.56 54.28Q438.50 41.91 431.88 24.97Q425.25 8.03 425.25-11.84L425.25-11.84Q425.25-31.72 431.88-48.65Q438.50-65.59 450.56-77.97Q462.63-90.34 479.56-97.28Q496.50-104.22 517-104.22L517-104.22Q537.50-104.22 554.38-97.22Q571.25-90.22 583.25-77.90Q595.25-65.59 601.88-48.65Q608.50-31.72 608.50-11.84ZM574-11.84L574-11.84Q574-26.72 570.06-38.53Q566.13-50.34 558.75-58.59Q551.38-66.84 540.81-71.22Q530.25-75.59 517-75.59L517-75.59Q503.75-75.59 493.13-71.22Q482.50-66.84 475.06-58.59Q467.63-50.34 463.63-38.53Q459.63-26.72 459.63-11.84L459.63-11.84Q459.63 3.03 463.63 14.85Q467.63 26.66 475.06 34.85Q482.50 43.03 493.13 47.41Q503.75 51.78 517 51.78L517 51.78Q530.25 51.78 540.81 47.41Q551.38 43.03 558.75 34.85Q566.13 26.66 570.06 14.85Q574 3.03 574-11.84ZM684.13 7.91L669.75 7.91L669.75 78.53L636.13 78.53L636.13-102.22L691.25-102.22Q709.75-102.22 722.94-98.40Q736.13-94.59 744.56-87.72Q753-80.84 756.94-71.28Q760.88-61.72 760.88-50.22L760.88-50.22Q760.88-41.09 758.19-32.97Q755.50-24.84 750.44-18.22Q745.38-11.59 737.94-6.59Q730.50-1.59 721 1.41L721 1.41Q727.38 5.03 732 11.78L732 11.78L777.25 78.53L747 78.53Q742.63 78.53 739.56 76.78Q736.50 75.03 734.38 71.78L734.38 71.78L696.38 13.91Q694.25 10.66 691.69 9.28Q689.13 7.91 684.13 7.91L684.13 7.91ZM669.75-76.22L669.75-16.22L690.75-16.22Q700.25-16.22 707.31-18.59Q714.38-20.97 718.94-25.15Q723.50-29.34 725.75-35.09Q728-40.84 728-47.72L728-47.72Q728-61.47 718.94-68.84Q709.88-76.22 691.25-76.22L691.25-76.22L669.75-76.22ZM798.75-102.22L912.75-102.22L912.75-75.47L832.63-75.47L832.63-25.34L895.75-25.34L895.75 0.53L832.63 0.53L832.63 51.66L912.75 51.66L912.75 78.53L798.75 78.53L798.75-102.22Z"/></g>
<g transform="matrix(1.4979 0 0 1.4979 2161.4192 278.1962)" id="446740">
<g style="" vector-effect="non-scaling-stroke">
		<g transform="matrix(1 0 0 1 39.7 -0.05)" id="Layer_2">
<path style="stroke: none; stroke-width: 1; stroke-dasharray: none; stroke-linecap: butt; stroke-dashoffset: 0; stroke-linejoin: miter; stroke-miterlimit: 4; is-custom-font: none; font-file-url: none; fill: rgb(0,0,0); fill-rule: nonzero; opacity: 1;" transform=" translate(-295.7, -255.95)" d="M 401.8 206.5 c -1.4 -2 -3.7 -3.2 -6.1 -3.2 h -46.5 v -19.8 c 0 -4.1 -3.4 -7.5 -7.5 -7.5 H 173.2 c -4.1 0 -7.5 3.4 -7.5 7.5 v 121.2 c 0 4.1 3.4 7.5 7.5 7.5 h 21.2 c 3.9 13.6 16.5 23.7 31.3 23.7 s 27.4 -10 31.3 -23.7 h 83.1 c 3.9 13.6 16.5 23.7 31.3 23.7 s 27.4 -10 31.3 -23.7 h 15.5 c 4.1 0 7.5 -3.4 7.5 -7.5 V 243 c 0 -1.6 -0.5 -3.1 -1.4 -4.3 L 401.8 206.5 z M 410.8 245.2 h -33.6 v -26.8 h 14.7 L 410.8 245.2 z M 180.7 191.1 h 153.5 v 106.2 h -76.5 c -2.9 -15.1 -16.1 -26.5 -32 -26.5 s -29.2 11.4 -32 26.5 h -13 V 191.1 z M 225.7 320.9 c -9.7 0 -17.6 -7.9 -17.6 -17.6 s 7.9 -17.6 17.6 -17.6 s 17.6 7.9 17.6 17.6 S 235.4 320.9 225.7 320.9 z M 371.5 320.9 c -9.7 0 -17.6 -7.9 -17.6 -17.6 s 7.9 -17.6 17.6 -17.6 s 17.6 7.9 17.6 17.6 S 381.2 320.9 371.5 320.9 z M 403.5 297.3 c -2.9 -15.1 -16.1 -26.5 -32 -26.5 c -8.6 0 -16.5 3.4 -22.3 8.9 v -61.3 h 12.9 v 34.3 c 0 4.1 3.4 7.5 7.5 7.5 h 41.3 v 37.1 H 403.5 z" stroke-linecap="round"/>
</g>
		<g transform="matrix(1 0 0 1 -135.65 -72.4)" id="Layer_2">
<path style="stroke: none; stroke-width: 1; stroke-dasharray: none; stroke-linecap: butt; stroke-dashoffset: 0; stroke-linejoin: miter; stroke-miterlimit: 4; is-custom-font: none; font-file-url: none; fill: rgb(0,0,0); fill-rule: nonzero; opacity: 1;" transform=" translate(-120.35, -183.6)" d="M 93.6 191.1 h 53.5 c 4.1 0 7.5 -3.4 7.5 -7.5 s -3.4 -7.5 -7.5 -7.5 H 93.6 c -4.1 0 -7.5 3.4 -7.5 7.5 S 89.5 191.1 93.6 191.1 z" stroke-linecap="round"/>
</g>
		<g transform="matrix(1 0 0 1 -129.5 -45.1)" id="Layer_2">
<path style="stroke: none; stroke-width: 1; stroke-dasharray: none; stroke-linecap: butt; stroke-dashoffset: 0; stroke-linejoin: miter; stroke-miterlimit: 4; is-custom-font: none; font-file-url: none; fill: rgb(0,0,0); fill-rule: nonzero; opacity: 1;" transform=" translate(-126.5, -210.9)" d="M 147.1 203.4 h -41.2 c -4.1 0 -7.5 3.4 -7.5 7.5 s 3.4 7.5 7.5 7.5 h 41.2 c 4.1 0 7.5 -3.4 7.5 -7.5 S 151.3 203.4 147.1 203.4 z" stroke-linecap="round"/>
</g>
		<g transform="matrix(1 0 0 1 -121.9 -17.8)" id="Layer_2">
<path style="stroke: none; stroke-width: 1; stroke-dasharray: none; stroke-linecap: butt; stroke-dashoffset: 0; stroke-linejoin: miter; stroke-miterlimit: 4; is-custom-font: none; font-file-url: none; fill: rgb(0,0,0); fill-rule: nonzero; opacity: 1;" transform=" translate(-134.1, -238.2)" d="M 147.1 230.7 h -26 c -4.1 0 -7.5 3.4 -7.5 7.5 s 3.4 7.5 7.5 7.5 h 26 c 4.1 0 7.5 -3.4 7.5 -7.5 S 151.3 230.7 147.1 230.7 z" stroke-linecap="round"/>
</g>
		<g transform="matrix(1 0 0 1 -113.4 9.5)" id="Layer_2">
<path style="stroke: none; stroke-width: 1; stroke-dasharray: none; stroke-linecap: butt; stroke-dashoffset: 0; stroke-linejoin: miter; stroke-miterlimit: 4; is-custom-font: none; font-file-url: none; fill: rgb(0,0,0); fill-rule: nonzero; opacity: 1;" transform=" translate(-142.6, -265.5)" d="M 147.1 258 h -9 c -4.1 0 -7.5 3.4 -7.5 7.5 s 3.4 7.5 7.5 7.5 h 9 c 4.1 0 7.5 -3.4 7.5 -7.5 S 151.3 258 147.1 258 z" stroke-linecap="round"/>
</g>
</g>
</g>
</svg>