<svg xmlns="http://www.w3.org/2000/svg" xmlns:xlink="http://www.w3.org/1999/xlink" version="1.1" width="1000" height="1000" viewBox="0 0 1000 1000" xml:space="preserve">
<desc>Created with Fabric.js 3.5.0</desc>
<defs>
</defs>
<rect x="0" y="0" width="100%" height="100%" fill="rgba(255,255,255,0)"/>
<g transform="matrix(1 0 0 1 500 434.7238)" style="" id="98422">
		
<path xml:space="preserve" font-family="Ultra" font-size="144" font-style="normal" font-weight="normal" style="stroke: none; stroke-width: 0; stroke-dasharray: none; stroke-linecap: butt; stroke-dashoffset: 0; stroke-linejoin: miter; stroke-miterlimit: 4; is-custom-font: none; font-file-url: none; fill: rgb(0,0,0); fill-rule: nonzero; opacity: 0.84; white-space: pre;" d="M-395.54-6.44L-395.54-6.44Q-395.54-20.01-391.07-30.24Q-386.61-40.47-378.45-47.37Q-370.29-54.26-359.08-57.70Q-347.86-61.15-334.29-61.15L-334.29-61.15Q-320.79-61.15-309.54-57.70Q-298.29-54.26-290.17-47.37Q-282.05-40.47-277.59-30.24Q-273.12-20.01-273.12-6.44L-273.12-6.44Q-273.12 7.06-277.59 17.29Q-282.05 27.52-290.17 34.44Q-298.29 41.37-309.54 44.81Q-320.79 48.26-334.29 48.26L-334.29 48.26Q-347.86 48.26-359.08 44.81Q-370.29 41.37-378.45 34.44Q-386.61 27.52-391.07 17.29Q-395.54 7.06-395.54-6.44ZM-348.29-6.44L-348.29-6.44Q-348.29 2.06-347.65 7.79Q-347.02 13.53-345.44 17.08Q-343.86 20.63-341.18 22.21Q-338.51 23.79-334.29 23.79L-334.29 23.79Q-330.29 23.79-327.54 22.21Q-324.80 20.63-323.22 17.08Q-321.64 13.53-321.00 7.79Q-320.37 2.06-320.37-6.44L-320.37-6.44Q-320.37-14.81-321.00-20.65Q-321.64-26.48-323.22-30.00Q-324.80-33.51-327.54-35.10Q-330.29-36.68-334.29-36.68L-334.29-36.68Q-338.51-36.68-341.18-35.10Q-343.86-33.51-345.44-30.00Q-347.02-26.48-347.65-20.65Q-348.29-14.81-348.29-6.44Z"/><path xml:space="preserve" font-family="Ultra" font-size="144" font-style="normal" font-weight="normal" style="stroke: none; stroke-width: 0; stroke-dasharray: none; stroke-linecap: butt; stroke-dashoffset: 0; stroke-linejoin: miter; stroke-miterlimit: 4; is-custom-font: none; font-file-url: none; fill: rgb(0,0,0); fill-rule: nonzero; opacity: 0.84; white-space: pre;" d="M-210.05 45.24L-237.12-24.30Q-237.97-26.48-238.71-27.92Q-239.44-29.37-240.68-30.38Q-241.91-31.40-243.77-31.83Q-245.63-32.25-248.66-32.25L-248.66-32.25L-248.66-58.33L-187.62-58.33L-187.62-32.25Q-198.10-32.25-195.64-25.15L-195.64-25.15L-184.74 8.95L-184.11 8.95L-172.93-25.15Q-170.47-32.25-180.94-32.25L-180.94-32.25L-180.94-58.33L-140.09-58.33L-140.09-32.25Q-143.12-32.25-144.98-31.83Q-146.84-31.40-148.07-30.38Q-149.30-29.37-150.01-27.92Q-150.71-26.48-151.62-24.30L-151.62-24.30L-178.84 45.24L-210.05 45.24Z"/><path xml:space="preserve" font-family="Ultra" font-size="144" font-style="normal" font-weight="normal" style="stroke: none; stroke-width: 0; stroke-dasharray: none; stroke-linecap: butt; stroke-dashoffset: 0; stroke-linejoin: miter; stroke-miterlimit: 4; is-custom-font: none; font-file-url: none; fill: rgb(0,0,0); fill-rule: nonzero; opacity: 0.84; white-space: pre;" d="M-63.31 19.15L-50.66 19.15Q-47.78 19.15-45.84 18.66Q-43.91 18.17-42.75 16.79Q-41.59 15.42-41.17 13.03Q-40.74 10.64-40.74 6.92L-40.74 6.92L-16.14 6.92L-16.14 45.24L-116.33 45.24L-116.33 19.15Q-110.14 19.15-107.47 17.50Q-104.80 15.85-104.80 11.28L-104.80 11.28L-104.80-24.30Q-104.80-28.94-107.47-30.60Q-110.14-32.25-116.33-32.25L-116.33-32.25L-116.33-58.33L-16.14-58.33L-16.14-20.01L-40.74-20.01Q-40.74-23.74-41.17-26.13Q-41.59-28.52-42.75-29.86Q-43.91-31.19-45.84-31.72Q-47.78-32.25-50.66-32.25L-50.66-32.25L-63.31-32.25L-63.31-13.55L-40.89-13.55L-40.89-1.10L-63.31-1.10L-63.31 19.15Z"/><path xml:space="preserve" font-family="Ultra" font-size="144" font-style="normal" font-weight="normal" style="stroke: none; stroke-width: 0; stroke-dasharray: none; stroke-linecap: butt; stroke-dashoffset: 0; stroke-linejoin: miter; stroke-miterlimit: 4; is-custom-font: none; font-file-url: none; fill: rgb(0,0,0); fill-rule: nonzero; opacity: 0.84; white-space: pre;" d="M90.88-58.33L136.37-58.33L136.37-32.25Q130.18-32.25 128.25-30.21Q126.31-28.17 126.31-24.30L126.31-24.30L126.31 45.24L84.06 45.24L47.35-12.21L47.35 12.12Q47.35 16.69 50.03 17.92Q52.70 19.15 58.89 19.15L58.89 19.15L58.89 45.24L10.51 45.24L10.51 19.15Q16.70 19.15 19.37 17.50Q22.04 15.85 22.04 11.28L22.04 11.28L22.04-24.30Q22.04-28.94 19.37-30.60Q16.70-32.25 10.51-32.25L10.51-32.25L10.51-58.33L65.78-58.33L100.93-3.28L100.93-24.30Q100.93-28.94 99.00-30.60Q97.06-32.25 90.88-32.25L90.88-32.25L90.88-58.33Z"/><path xml:space="preserve" font-family="Ultra" font-size="144" font-style="normal" font-weight="normal" style="stroke: none; stroke-width: 0; stroke-dasharray: none; stroke-linecap: butt; stroke-dashoffset: 0; stroke-linejoin: miter; stroke-miterlimit: 4; is-custom-font: none; font-file-url: none; fill: rgb(0,0,0); fill-rule: nonzero; opacity: 0.84; white-space: pre;" d="M214.84-61.15L214.84-61.15Q219.55-61.15 223.66-60.37Q227.77-59.60 231.15-58.37Q234.52-57.14 236.98-55.77Q239.44-54.40 240.99-53.27L240.99-53.27L240.99-58.33L264.19-58.33L264.19-20.01L239.59-20.01Q239.59-24.72 238.43-27.89Q237.27-31.05 235.33-33.02Q233.40-34.99 230.80-35.83Q228.19-36.68 225.17-36.68L225.17-36.68Q221.02-36.68 218.07-35.10Q215.12-33.51 213.25-30.00Q211.39-26.48 210.44-20.65Q209.49-14.81 209.49-6.44L209.49-6.44Q209.49 2.06 210.51 7.79Q211.53 13.53 213.61 17.08Q215.68 20.63 218.91 22.21Q222.15 23.79 226.65 23.79L226.65 23.79Q229.67 23.79 232.48 22.63Q235.30 21.47 237.44 19.08Q239.59 16.69 240.82 13.10Q242.05 9.52 242.05 4.45L242.05 4.45L266.52 4.45Q266.52 13.38 263.70 21.33Q260.89 29.28 254.91 35.25Q248.94 41.23 239.73 44.74Q230.52 48.26 217.86 48.26L217.86 48.26Q206.47 48.26 196.31 45.17Q186.15 42.07 178.59 35.46Q171.03 28.85 166.64 18.48Q162.24 8.11 162.24-6.44L162.24-6.44Q162.24-21.00 166.71-31.37Q171.17-41.74 178.52-48.35Q185.87-54.96 195.29-58.05Q204.71-61.15 214.84-61.15Z"/><path xml:space="preserve" font-family="Ultra" font-size="144" font-style="normal" font-weight="normal" style="stroke: none; stroke-width: 0; stroke-dasharray: none; stroke-linecap: butt; stroke-dashoffset: 0; stroke-linejoin: miter; stroke-miterlimit: 4; is-custom-font: none; font-file-url: none; fill: rgb(0,0,0); fill-rule: nonzero; opacity: 0.84; white-space: pre;" d="M349.06 19.15L361.72 19.15Q364.60 19.15 366.53 18.66Q368.47 18.17 369.63 16.79Q370.79 15.42 371.21 13.03Q371.63 10.64 371.63 6.92L371.63 6.92L396.24 6.92L396.24 45.24L296.04 45.24L296.04 19.15Q302.23 19.15 304.90 17.50Q307.57 15.85 307.57 11.28L307.57 11.28L307.57-24.30Q307.57-28.94 304.90-30.60Q302.23-32.25 296.04-32.25L296.04-32.25L296.04-58.33L396.24-58.33L396.24-20.01L371.63-20.01Q371.63-23.74 371.21-26.13Q370.79-28.52 369.63-29.86Q368.47-31.19 366.53-31.72Q364.60-32.25 361.72-32.25L361.72-32.25L349.06-32.25L349.06-13.55L371.49-13.55L371.49-1.10L349.06-1.10L349.06 19.15Z"/></g>
<g transform="matrix(1 0 0 1 500 606.0405)" style="" id="222616">
		
<path xml:space="preserve" font-family="Ultra" font-size="144" font-style="normal" font-weight="normal" style="stroke: none; stroke-width: 0; stroke-dasharray: none; stroke-linecap: butt; stroke-dashoffset: 0; stroke-linejoin: miter; stroke-miterlimit: 4; is-custom-font: none; font-file-url: none; fill: rgb(0,0,0); fill-rule: nonzero; opacity: 0.84; white-space: pre;" d="M-220.80-58.33L-220.80-20.72L-244.00-20.72Q-244.56-24.30-246.49-27.40Q-248.43-30.49-251.24-32.74Q-254.05-34.99-257.50-36.22Q-260.94-37.45-264.60-37.45L-264.60-37.45Q-269.03-37.45-271.77-35.76Q-274.51-34.08-274.51-31.05L-274.51-31.05Q-274.51-28.17-272.05-26.38Q-269.59-24.58-265.58-23.28Q-261.58-21.98-256.44-20.79Q-251.31-19.59-246.00-17.83Q-240.69-16.08-235.56-13.58Q-230.43-11.08-226.42-7.18Q-222.41-3.28-219.95 2.35Q-217.49 7.97-217.49 15.85L-217.49 15.85Q-217.49 24.21-221.08 30.12Q-224.66 36.03-230.71 39.82Q-236.76 43.62-244.63 45.38Q-252.51 47.13-260.94 47.13L-260.94 47.13Q-269.17 47.13-276.66 45.24Q-284.15 43.34-291.95 39.05L-291.95 39.05L-291.95 45.24L-315.15 45.24L-315.15 6.92L-291.95 6.92Q-289.91 15.14-283.80 19.89Q-277.68 24.63-270.01 24.63L-270.01 24.63Q-264.88 24.63-262.35 22.70Q-259.82 20.77-259.82 18.31L-259.82 18.31Q-259.82 14.44-264.00 12.33Q-268.19 10.22-274.37 8.57Q-280.56 6.92-287.91 4.84Q-295.26 2.77-301.44-1.13Q-307.63-5.04-311.81-11.44Q-316.00-17.83-316.00-28.17L-316.00-28.17Q-316.00-35.83-312.69-41.74Q-309.39-47.65-303.83-51.69Q-298.28-55.73-291.00-57.81Q-283.73-59.88-275.64-59.88L-275.64-59.88Q-264.46-59.88-256.44-57.28Q-248.43-54.68-244.00-51.80L-244.00-51.80L-244.00-58.33L-220.80-58.33Z"/><path xml:space="preserve" font-family="Ultra" font-size="144" font-style="normal" font-weight="normal" style="stroke: none; stroke-width: 0; stroke-dasharray: none; stroke-linecap: butt; stroke-dashoffset: 0; stroke-linejoin: miter; stroke-miterlimit: 4; is-custom-font: none; font-file-url: none; fill: rgb(0,0,0); fill-rule: nonzero; opacity: 0.84; white-space: pre;" d="M-83.42 12.12L-83.42-0.96L-107.61-0.96L-107.61 12.12Q-107.61 15.85-105.53 17.50Q-103.46 19.15-98.11 19.15L-98.11 19.15L-98.11 45.24L-160.62 45.24L-160.62 19.15Q-154.43 19.15-151.76 17.50Q-149.09 15.85-149.09 11.28L-149.09 11.28L-149.09-24.30Q-149.09-28.94-151.76-30.60Q-154.43-32.25-160.62-32.25L-160.62-32.25L-160.62-58.33L-98.11-58.33L-98.11-32.25Q-103.46-32.25-105.53-30.60Q-107.61-28.94-107.61-25.15L-107.61-25.15L-107.61-13.83L-83.42-13.83L-83.42-25.15Q-83.42-28.94-85.53-30.60Q-87.64-32.25-92.91-32.25L-92.91-32.25L-92.91-58.33L-30.47-58.33L-30.47-32.25Q-36.66-32.25-39.30-30.60Q-41.93-28.94-41.93-24.30L-41.93-24.30L-41.93 11.28Q-41.93 15.85-39.30 17.50Q-36.66 19.15-30.47 19.15L-30.47 19.15L-30.47 45.24L-92.91 45.24L-92.91 19.15Q-87.64 19.15-85.53 17.50Q-83.42 15.85-83.42 12.12L-83.42 12.12Z"/><path xml:space="preserve" font-family="Ultra" font-size="144" font-style="normal" font-weight="normal" style="stroke: none; stroke-width: 0; stroke-dasharray: none; stroke-linecap: butt; stroke-dashoffset: 0; stroke-linejoin: miter; stroke-miterlimit: 4; is-custom-font: none; font-file-url: none; fill: rgb(0,0,0); fill-rule: nonzero; opacity: 0.84; white-space: pre;" d="M26.40-6.44L26.40-6.44Q26.40-20.01 30.86-30.24Q35.33-40.47 43.48-47.37Q51.64-54.26 62.85-57.70Q74.07-61.15 87.64-61.15L87.64-61.15Q101.14-61.15 112.39-57.70Q123.64-54.26 131.76-47.37Q139.88-40.47 144.34-30.24Q148.81-20.01 148.81-6.44L148.81-6.44Q148.81 7.06 144.34 17.29Q139.88 27.52 131.76 34.44Q123.64 41.37 112.39 44.81Q101.14 48.26 87.64 48.26L87.64 48.26Q74.07 48.26 62.85 44.81Q51.64 41.37 43.48 34.44Q35.33 27.52 30.86 17.29Q26.40 7.06 26.40-6.44ZM73.65-6.44L73.65-6.44Q73.65 2.06 74.28 7.79Q74.91 13.53 76.49 17.08Q78.08 20.63 80.75 22.21Q83.42 23.79 87.64 23.79L87.64 23.79Q91.65 23.79 94.39 22.21Q97.13 20.63 98.71 17.08Q100.29 13.53 100.93 7.79Q101.56 2.06 101.56-6.44L101.56-6.44Q101.56-14.81 100.93-20.65Q100.29-26.48 98.71-30.00Q97.13-33.51 94.39-35.10Q91.65-36.68 87.64-36.68L87.64-36.68Q83.42-36.68 80.75-35.10Q78.08-33.51 76.49-30.00Q74.91-26.48 74.28-20.65Q73.65-14.81 73.65-6.44Z"/><path xml:space="preserve" font-family="Ultra" font-size="144" font-style="normal" font-weight="normal" style="stroke: none; stroke-width: 0; stroke-dasharray: none; stroke-linecap: butt; stroke-dashoffset: 0; stroke-linejoin: miter; stroke-miterlimit: 4; is-custom-font: none; font-file-url: none; fill: rgb(0,0,0); fill-rule: nonzero; opacity: 0.84; white-space: pre;" d="M281.55 7.06L258.69 7.06L258.69 11.28Q258.69 15.00 260.56 17.08Q262.42 19.15 267.34 19.15L267.34 19.15L274.51 19.15L274.51 45.24L205.68 45.24L205.68 19.15Q211.87 19.15 214.54 17.50Q217.21 15.85 217.21 11.28L217.21 11.28L217.21-24.30Q217.21-28.94 214.54-30.60Q211.87-32.25 205.68-32.25L205.68-32.25L205.68-58.33L281.55-58.33Q291.95-58.33 298.98-55.87Q306.01-53.41 310.27-49.02Q314.52-44.62 316.31-38.37Q318.11-32.11 318.11-24.58L318.11-24.58Q318.11-16.99 316.31-11.15Q314.52-5.32 310.27-1.21Q306.01 2.91 298.98 4.98Q291.95 7.06 281.55 7.06L281.55 7.06ZM258.69-32.25L258.69-9.61L266.29-9.61Q272.19-9.61 274.44-12.70Q276.69-15.80 276.69-20.86L276.69-20.86Q276.69-25.64 274.44-28.94Q272.19-32.25 266.29-32.25L266.29-32.25L258.69-32.25Z"/></g>
<g transform="matrix(17.1316 0 0 19.5784 497.7627 499.7501)" id="743979">
<path style="stroke: none; stroke-width: 1; stroke-dasharray: none; stroke-linecap: butt; stroke-dashoffset: 0; stroke-linejoin: miter; stroke-miterlimit: 4; is-custom-font: none; font-file-url: none; fill: rgb(35,31,32); fill-rule: nonzero; opacity: 1;" vector-effect="non-scaling-stroke" transform=" translate(-32, -30.5)" d="M 60.53 18.71 A 2 2 0 0 0 59 18 H 48.85 A 15 15 0 0 0 34 5 H 30 A 15 15 0 0 0 15.15 18 H 5 a 2 2 0 0 0 -1.53 0.71 A 2 2 0 0 0 3 20.35 l 5.33 30.3 A 6.51 6.51 0 0 0 14.77 56 H 49.23 a 6.51 6.51 0 0 0 6.41 -5.36 L 61 20.35 A 2 2 0 0 0 60.53 18.71 Z M 30 9 h 4 a 11 11 0 0 1 10.81 9 H 19.19 A 11 11 0 0 1 30 9 Z M 51.71 49.94 A 2.52 2.52 0 0 1 49.23 52 H 14.77 a 2.5 2.5 0 0 1 -2.47 -2 L 7.38 22 H 56.62 Z" stroke-linecap="round"/>
</g>
</svg>